<?xml version="1.0" encoding="UTF-8" standalone="no"?>
<svg xmlns:dc="http://purl.org/dc/elements/1.1/" xmlns:cc="http://creativecommons.org/ns#" xmlns:rdf="http://www.w3.org/1999/02/22-rdf-syntax-ns#" xmlns:svg="http://www.w3.org/2000/svg" xmlns="http://www.w3.org/2000/svg" xmlns:sodipodi="http://sodipodi.sourceforge.net/DTD/sodipodi-0.dtd" xmlns:inkscape="http://www.inkscape.org/namespaces/inkscape" width="48" height="48" viewBox="0 0 48 48.000001" id="svg17545" version="1.1" inkscape:version="0.91 r13725" sodipodi:docname="calendar-december-25-christmas-xmas-festival-date.svg">
  <defs id="defs17547"/>
  <sodipodi:namedview id="base" pagecolor="#ffffff" bordercolor="#666666" borderopacity="1.0" inkscape:pageopacity="0.0" inkscape:pageshadow="2" inkscape:zoom="3.8310004" inkscape:cx="-27.462685" inkscape:cy="41.580376" inkscape:document-units="px" inkscape:current-layer="layer1" showgrid="true" units="px" inkscape:window-width="1366" inkscape:window-height="716" inkscape:window-x="-8" inkscape:window-y="-8" inkscape:window-maximized="1" inkscape:snap-bbox="true" inkscape:object-nodes="true" inkscape:snap-smooth-nodes="true">
    <inkscape:grid type="xygrid" id="grid18115" empspacing="4"/>
  </sodipodi:namedview>
  
  <g inkscape:label="Layer 1" inkscape:groupmode="layer" id="layer1" transform="translate(0,-1004.3622)">
    <g transform="matrix(1.246752,0,0,1.246752,3527.546,-1026.106)" id="g16038">
      <path inkscape:connector-curvature="0" style="color:#000000;font-style:normal;font-variant:normal;font-weight:normal;font-stretch:normal;font-size:medium;line-height:normal;font-family:sans-serif;text-indent:0;text-align:start;text-decoration:none;text-decoration-line:none;text-decoration-style:solid;text-decoration-color:#000000;letter-spacing:normal;word-spacing:normal;text-transform:none;direction:ltr;block-progression:tb;writing-mode:lr-tb;baseline-shift:baseline;text-anchor:start;white-space:normal;clip-rule:nonzero;display:inline;overflow:visible;visibility:visible;opacity:1;isolation:auto;mix-blend-mode:normal;color-interpolation:sRGB;color-interpolation-filters:linearRGB;solid-color:#000000;solid-opacity:1;fill:#ea6153;fill-opacity:1;fill-rule:nonzero;stroke:none;stroke-width:1.5;stroke-linecap:butt;stroke-linejoin:miter;stroke-miterlimit:4;stroke-dasharray:none;stroke-dashoffset:0;stroke-opacity:1;color-rendering:auto;image-rendering:auto;shape-rendering:auto;text-rendering:auto;enable-background:accumulate" d="m -2826.1387,1628.6063 32,0 c 1.8135,0 3.25,1.4365 3.25,3.25 l 0,6.25 -38.5,0 0,-6.25 c 0,-1.8135 1.4366,-3.25 3.25,-3.25 z" id="path16040"/>
      <path inkscape:connector-curvature="0" style="color:#000000;font-style:normal;font-variant:normal;font-weight:normal;font-stretch:normal;font-size:medium;line-height:normal;font-family:sans-serif;text-indent:0;text-align:start;text-decoration:none;text-decoration-line:none;text-decoration-style:solid;text-decoration-color:#000000;letter-spacing:normal;word-spacing:normal;text-transform:none;direction:ltr;block-progression:tb;writing-mode:lr-tb;baseline-shift:baseline;text-anchor:start;white-space:normal;clip-rule:nonzero;display:inline;overflow:visible;visibility:visible;opacity:1;isolation:auto;mix-blend-mode:normal;color-interpolation:sRGB;color-interpolation-filters:linearRGB;solid-color:#000000;solid-opacity:1;fill:#e3e3e3;fill-opacity:1;fill-rule:nonzero;stroke:none;stroke-width:1.5;stroke-linecap:butt;stroke-linejoin:miter;stroke-miterlimit:4;stroke-dasharray:none;stroke-dashoffset:0;stroke-opacity:1;color-rendering:auto;image-rendering:auto;shape-rendering:auto;text-rendering:auto;enable-background:accumulate" d="m -2829.3887,635.24414 0,24.25 c 0,1.8135 1.4366,3.25 3.25,3.25 l 32,0 c 1.8135,0 3.25,-1.4365 3.25,-3.25 l 0,-24.25 -38.5,0 z m 12.6172,7 c 1.7349,0 3.6611,0.78032 4.6348,2.35742 1.0595,1.7176 0.9658,4.04356 0.018,5.75586 -0.9374,1.6931 -3.0301,2.90905 -4.8868,3.83985 -0.057,0.029 -0.052,0.0189 -0.1093,0.0469 l 7.3222,0 0,1.5 -10.9746,0 -0.2461,-1.45703 c 0,0 1.5775,-0.55004 3.336,-1.43164 1.7586,-0.8816 3.6607,-2.16731 4.2461,-3.22461 0.6671,-1.2032 0.7078,-3.12419 0.017,-4.24219 -0.5921,-0.9591 -2.1139,-1.64453 -3.3574,-1.64453 -0.4089,0 -1.3928,0.41547 -2.1621,0.88867 -0.7693,0.4733 -1.3652,0.94922 -1.3652,0.94922 l -0.9356,-1.17383 c 0,0 0.6573,-0.52593 1.5137,-1.05273 0.8563,-0.5268 1.8688,-1.11133 2.9492,-1.11133 z m 10.2422,0 6.7363,0 0,1.5 -5.2343,0 0.01,4.06641 c 1.0583,-0.4973 2.2277,-0.7081 3.3477,-0.2461 1.5889,0.6554 2.6274,2.21134 2.6269,3.93164 -6e-4,1.7205 -1.0396,3.27519 -2.6289,3.92969 -1.5892,0.6546 -3.4229,0.28239 -4.6308,-0.9414 l 1.0683,-1.05469 c 0.7838,0.7941 1.9604,1.03357 2.9903,0.60937 1.0302,-0.4243 1.7007,-1.42477 1.7011,-2.54297 3e-4,-1.1181 -0.6694,-2.12012 -1.6992,-2.54492 -1.0298,-0.4248 -2.2059,-0.18618 -2.9902,0.60742 l -1.2813,1.29493 -0.016,-8.60938 z" transform="translate(0,1004.3622)" id="path16042"/>
    </g>
  </g>

	<metadata>
		<rdf:RDF xmlns:rdf="http://www.w3.org/1999/02/22-rdf-syntax-ns#" xmlns:rdfs="http://www.w3.org/2000/01/rdf-schema#" xmlns:dc="http://purl.org/dc/elements/1.1/">
			<rdf:Description about="https://iconscout.com/legal#licenses" dc:title="calendar-december-25-christmas-xmas-festival-date" dc:description="calendar-december-25-christmas-xmas-festival-date" dc:publisher="Iconscout" dc:date="2017-06-29" dc:format="image/svg+xml" dc:language="en">
				<dc:creator>
					<rdf:Bag>
						<rdf:li>Vignesh Oviyan</rdf:li>
					</rdf:Bag>
				</dc:creator>
			</rdf:Description>
		</rdf:RDF>
    </metadata></svg>
