<?xml version="1.0" encoding="UTF-8"?><svg xmlns="http://www.w3.org/2000/svg" xmlns:xlink="http://www.w3.org/1999/xlink" version="1.1" id="Layer_1" x="0px" y="0px" viewBox="0 0 24 24" xml:space="preserve"><path id="base_color_21_" fill="#F47920" d="M21.472 6.427L20.955 1h-3.432l-.069 1.448c-3.315-1.9-7.593-1.9-10.908 0L6.476 1h-3.43l-.518 5.427C1.528 8.123 1 10.047 1 12c0 1.953.528 3.877 1.528 5.573L3.045 23h2.91l.163-1.716C7.882 22.41 9.898 23 12 23s4.118-.59 5.882-1.716L18.045 23h2.91l.517-5.427C22.472 15.877 23 13.953 23 12c0-1.953-.528-3.877-1.528-5.573z"/><g id="light_foil_21_" fill="#FFF"><path opacity="0.1" d="M12 1C5.925 1 1 5.925 1 12s4.925 11 11 11 11-4.925 11-11S18.075 1 12 1zm0 20c-4.962 0-9-4.038-9-9s4.038-9 9-9 9 4.038 9 9-4.038 9-9 9z"/><path opacity="0.8" d="M12 11c.35 0 .643.191.822.464l2.334-4.774-.114-.919-.78.472-2.34 4.773c.027-.002.05-.016.078-.016z"/><path opacity="0.8" d="M15.624 14.917l-2.673-2.673a.976.976 0 0 1-.707.707l2.673 2.673 1.06.4-.353-1.107z"/><path opacity="0.6" d="M12 13c-.551 0-1-.449-1-1s.449-1 1-1 1 .449 1 1-.449 1-1 1z"/><path opacity="0.2" d="M21.469 6.399L20.955 1h-3.432l-.069 1.445A11.053 11.053 0 0 1 21.47 6.4z"/><path opacity="0.2" d="M6.462 2.494l.084-.054L6.476 1h-3.43L2.53 6.402a11.054 11.054 0 0 1 3.93-3.908z"/><path opacity="0.2" d="M17.888 21.293l-.005.004.162 1.703h2.91l.514-5.402a11.057 11.057 0 0 1-3.581 3.695z"/><path opacity="0.2" d="M6.113 21.294a11.057 11.057 0 0 1-3.582-3.696L3.045 23h2.91l.162-1.703-.004-.003z"/></g><metadata><rdf:RDF xmlns:rdf="http://www.w3.org/1999/02/22-rdf-syntax-ns#" xmlns:rdfs="http://www.w3.org/2000/01/rdf-schema#" xmlns:dc="http://purl.org/dc/elements/1.1/"><rdf:Description about="https://iconscout.com/legal#licenses" dc:title="time,clock,watch" dc:description="time,clock,watch" dc:publisher="Iconscout" dc:date="2017-11-10" dc:format="image/svg+xml" dc:language="en"><dc:creator><rdf:Bag><rdf:li>Those Icons</rdf:li></rdf:Bag></dc:creator></rdf:Description></rdf:RDF></metadata></svg>